<?xml version="1.0" encoding="UTF-8"?>
<svg xmlns="http://www.w3.org/2000/svg" xmlns:xlink="http://www.w3.org/1999/xlink" viewBox="0 0 48 48" width="24" height="24">
<g id="surface135956484">
<path style=" stroke:none;fill-rule:nonzero;fill:rgb(80%,80%,80%);fill-opacity:1;" d="M 40 12 C 40 12 35.414062 8.410156 30 8 L 29.511719 8.976562 C 34.40625 10.175781 36.652344 11.890625 39 14 C 34.953125 11.933594 30.960938 10 24 10 C 17.039062 10 13.046875 11.933594 9 14 C 11.347656 11.890625 14.019531 9.984375 18.488281 8.976562 L 18 8 C 12.320312 8.535156 8 12 8 12 C 8 12 2.878906 19.425781 2 34 C 7.160156 39.953125 15 40 15 40 L 16.640625 37.816406 C 13.855469 36.847656 10.714844 35.121094 8 32 C 11.238281 34.449219 16.125 37 24 37 C 31.875 37 36.761719 34.449219 40 32 C 37.285156 35.121094 34.144531 36.847656 31.359375 37.816406 L 33 40 C 33 40 40.839844 39.953125 46 34 C 45.121094 19.425781 40 12 40 12 Z M 17.5 30 C 15.566406 30 14 28.207031 14 26 C 14 23.789062 15.566406 22 17.5 22 C 19.433594 22 21 23.789062 21 26 C 21 28.207031 19.433594 30 17.5 30 Z M 30.5 30 C 28.566406 30 27 28.207031 27 26 C 27 23.789062 28.566406 22 30.5 22 C 32.433594 22 34 23.789062 34 26 C 34 28.207031 32.433594 30 30.5 30 Z M 30.5 30 "/>
</g>
</svg>
